<?xml version="1.0" standalone="no"?>
<!DOCTYPE svg PUBLIC "-//W3C//DTD SVG 20010904//EN"
 "http://www.w3.org/TR/2001/REC-SVG-20010904/DTD/svg10.dtd">
<svg version="1.0" xmlns="http://www.w3.org/2000/svg"
 width="1123.000000pt" height="1123.000000pt" viewBox="0 0 1123.000000 1123.000000"
 preserveAspectRatio="xMidYMid meet">
<metadata>
Created by potrace 1.11, written by Peter Selinger 2001-2013
</metadata>
<g transform="translate(0.000000,1123.000000) scale(0.100000,-0.100000)"
fill="#000000" stroke="none">
<path d="M5455 11139 c-1197 -728 -2198 -1752 -2893 -2960 -451 -785 -783
-1667 -956 -2544 -60 -302 -114 -697 -131 -950 -4 -49 -9 -103 -12 -120 -9
-53 -12 -886 -3 -1015 71 -1050 308 -2014 725 -2945 62 -137 260 -532 290
-578 l17 -27 399 0 398 0 -7 37 c-4 21 -7 1033 -7 2248 0 2137 1 2212 19 2280
54 199 166 357 332 465 89 58 159 86 274 110 79 16 202 17 1715 18 1521 1
1636 -1 1715 -17 159 -33 280 -99 395 -215 117 -119 185 -245 216 -406 11 -52
13 -512 13 -2245 0 -1199 -4 -2201 -8 -2227 l-8 -48 398 0 399 0 11 23 c6 12
37 72 70 132 304 568 570 1268 727 1915 100 409 157 755 212 1290 26 256 27
1140 1 1310 -2 14 -7 61 -10 105 -10 124 -44 386 -71 556 -33 198 -27 167 -79
424 -47 230 -149 604 -240 878 -49 147 -157 444 -192 525 -28 65 -43 99 -89
207 -82 189 -273 573 -370 740 -148 259 -386 630 -497 779 -18 24 -42 57 -53
72 -125 174 -397 504 -580 704 -75 82 -398 404 -487 487 -136 127 -396 345
-534 451 -49 36 -91 69 -94 72 -9 10 -310 224 -410 290 -144 97 -428 270 -441
270 -3 0 -72 -41 -154 -91z m360 -2713 c17 -4 55 -11 85 -17 353 -68 691 -301
895 -618 79 -123 168 -332 190 -448 38 -201 40 -359 9 -567 -7 -50 -51 -203
-69 -243 -8 -17 -15 -34 -15 -38 0 -17 -86 -175 -138 -254 -79 -119 -251 -290
-378 -374 -368 -244 -806 -304 -1225 -167 -99 33 -265 114 -344 169 -145 100
-305 261 -375 377 -13 21 -26 41 -29 44 -37 33 -159 324 -176 418 -2 15 -11
61 -19 102 -15 76 -16 391 -2 454 29 127 40 166 67 243 36 104 113 252 177
343 67 94 205 234 297 302 44 32 86 63 93 69 7 6 59 35 115 63 142 72 303 123
447 141 30 4 57 8 59 10 6 6 303 -2 336 -9z"/>
</g>
</svg>
