<?xml version="1.0" encoding="UTF-8" standalone="no"?>
<svg
   xmlns:dc="http://purl.org/dc/elements/1.1/"
   xmlns:cc="http://creativecommons.org/ns#"
   xmlns:rdf="http://www.w3.org/1999/02/22-rdf-syntax-ns#"
   xmlns:svg="http://www.w3.org/2000/svg"
   xmlns="http://www.w3.org/2000/svg"
   xmlns:xlink="http://www.w3.org/1999/xlink"
   xmlns:sodipodi="http://sodipodi.sourceforge.net/DTD/sodipodi-0.dtd"
   xmlns:inkscape="http://www.inkscape.org/namespaces/inkscape"
   width="400"
   height="400"
   viewBox="0 0 400 400"
   version="1.1"
   id="svg8"
   sodipodi:docname="armirage-logo.svg"
   inkscape:version="1.0.1 (3bc2e813f5, 2020-09-07)">
  <sodipodi:namedview
     pagecolor="#ffffff"
     bordercolor="#666666"
     borderopacity="1"
     objecttolerance="10"
     gridtolerance="10"
     guidetolerance="10"
     inkscape:pageopacity="0"
     inkscape:pageshadow="2"
     inkscape:window-width="1638"
     inkscape:window-height="944"
     id="view"
     showgrid="false"
     inkscape:zoom="2.25"
     inkscape:cx="200"
     inkscape:cy="200"
     inkscape:window-x="2594"
     inkscape:window-y="244"
     inkscape:window-maximized="0"
     inkscape:current-layer="svg8" />
  <title
     id="title">ARMirage Logo</title>
  <defs
     id="defs2">
    <linearGradient
       id="linearGradient8291">
      <stop
         style="stop-color:#f69941;stop-opacity:1"
         offset="0"
         id="stop8287" />
      <stop
         style="stop-color:#8b5c68;stop-opacity:1"
         offset="1"
         id="stop8289" />
    </linearGradient>
    <linearGradient
       id="linearGradient8281">
      <stop
         style="stop-color:#3e5d58;stop-opacity:1;"
         offset="0"
         id="stop8277" />
      <stop
         style="stop-color:#c2d978;stop-opacity:1"
         offset="1"
         id="stop8279" />
    </linearGradient>
    <linearGradient
       xlink:href="#linearGradient8281"
       id="linearGradient8283"
       x1="100.11328"
       y1="380.02148"
       x2="200"
       y2="20.748047"
       gradientUnits="userSpaceOnUse" />
    <radialGradient
       xlink:href="#linearGradient8291"
       id="radialGradient854"
       gradientUnits="userSpaceOnUse"
       gradientTransform="matrix(0.25335103,-2.0788621,1.6243979,0.1979654,-184.86204,582.62222)"
       cx="197.21532"
       cy="246.2348"
       fx="197.21532"
       fy="246.2348"
       r="133.33398" />
  </defs>
  <metadata
     id="metadata">
    <rdf:RDF>
      <cc:Work
         rdf:about="">
        <dc:format>image/svg+xml</dc:format>
        <dc:type
           rdf:resource="http://purl.org/dc/dcmitype/StillImage" />
        <dc:title>Armirage logo</dc:title>
        <dc:date>2018-12-12</dc:date>
        <dc:creator>
          <cc:Agent>
            <dc:title>Clinton Mulligan</dc:title>
          </cc:Agent>
        </dc:creator>
        <dc:rights>
          <cc:Agent>
            <dc:title>All rights reserved</dc:title>
          </cc:Agent>
        </dc:rights>
        <dc:publisher>
          <cc:Agent>
            <dc:title>Armirage</dc:title>
          </cc:Agent>
        </dc:publisher>
        <dc:description>A person icon wrapped iside a leaf like vector forming the letter A.</dc:description>
      </cc:Work>
    </rdf:RDF>
  </metadata>
  <g
     id="base"
     style="display:inline">
    <path
       style="opacity:1;fill:#f69941;fill-opacity:1;stroke:none;stroke-width:2.68007"
       d="M 200,20.748047 A 266.66666,266.66666 0 0 0 66.751953,251.35547 266.66666,266.66666 0 0 0 100.11328,380.02148 H 125.5 C 125.17191,378.40013 125,376.72094 125,375 V 240 c 0,-13.85 11.15,-25 25,-25 h 100 c 13.85,0 25,11.15 25,25 v 135 c 0,1.72094 -0.17191,3.40013 -0.5,5.02148 h 25.29883 A 266.66666,266.66666 0 0 0 333.41992,251.35547 266.66666,266.66666 0 0 0 200,20.748047 Z M 200,110 a 45,45 0 0 1 45,45 45,45 0 0 1 -45,45 45,45 0 0 1 -45,-45 45,45 0 0 1 45,-45 z"
       id="circle859" />
  </g>
  <g
     id="inside-gradient"
     style="display:inline;opacity:0.7">
    <path
       id="path8285"
       d="M 200,20.748047 A 266.66666,266.66666 0 0 0 66.751953,251.35547 266.66666,266.66666 0 0 0 100.11328,380.02148 H 125.5 C 125.17191,378.40013 125,376.72094 125,375 V 240 c 0,-13.85 11.15,-25 25,-25 h 100 c 13.85,0 25,11.15 25,25 v 135 c 0,1.72094 -0.17191,3.40013 -0.5,5.02148 h 25.29883 A 266.66666,266.66666 0 0 0 333.41992,251.35547 266.66666,266.66666 0 0 0 200,20.748047 Z M 200,110 a 45,45 0 0 1 45,45 45,45 0 0 1 -45,45 45,45 0 0 1 -45,-45 45,45 0 0 1 45,-45 z"
       style="display:inline;opacity:1;fill:url(#radialGradient854);fill-opacity:1;stroke:none;stroke-width:2.68007" />
  </g>
  <g
     id="edge-green"
     style="display:inline">
    <path
       style="display:inline;opacity:1;fill:#3e5d58;fill-opacity:1;stroke:none;stroke-width:2.68007"
       d="M 200,20.748047 A 266.66666,266.66666 0 0 0 66.751953,251.35547 266.66666,266.66666 0 0 0 100.11328,380.02148 H 125.5 C 125.17191,378.40013 125,376.72094 125,375 V 240 c 0,-0.70139 0.0357,-1.39364 0.0918,-2.08008 A 100.05,195 0 0 1 124,210.5957 100.05,195 0 0 1 200.73438,21.195312 266.66666,266.66666 0 0 0 200,20.748047 Z M 322.63867,177.4043 a 100.05,195 0 0 1 1.46094,33.1914 100.05,195 0 0 1 -49.33594,167.82618 c -0.0731,0.53834 -0.15709,1.07292 -0.26367,1.5996 h 25.29883 A 266.66666,266.66666 0 0 0 333.41992,251.35547 266.66666,266.66666 0 0 0 322.63867,177.4043 Z"
       id="path1045" />
  </g>
  <g
     id="edge-gradient"
     style="display:inline">
    <path
       id="path8275"
       d="M 200,20.748047 A 266.66666,266.66666 0 0 0 66.751953,251.35547 266.66666,266.66666 0 0 0 100.11328,380.02148 H 125.5 C 125.17191,378.40013 125,376.72094 125,375 V 240 c 0,-0.70139 0.0357,-1.39364 0.0918,-2.08008 A 100.05,195 0 0 1 124,210.5957 100.05,195 0 0 1 200.73438,21.195312 266.66666,266.66666 0 0 0 200,20.748047 Z M 322.63867,177.4043 a 100.05,195 0 0 1 1.46094,33.1914 100.05,195 0 0 1 -49.33594,167.82618 c -0.0731,0.53834 -0.15709,1.07292 -0.26367,1.5996 h 25.29883 A 266.66666,266.66666 0 0 0 333.41992,251.35547 266.66666,266.66666 0 0 0 322.63867,177.4043 Z"
       style="display:inline;opacity:1;fill:url(#linearGradient8283);fill-opacity:1;stroke:none;stroke-width:2.68007" />
  </g>
</svg>
